<svg width="50" height="50" viewBox="0 0 50 50" fill="none" xmlns="http://www.w3.org/2000/svg"><path fill="#FA4B00" d="M0 0h50v50H0z"/><path fill-rule="evenodd" clip-rule="evenodd" d="M40.697 29.11c-.225-.692-.615-1.327-1.158-1.901-.569-.6-1.316-1.064-2.243-1.4-.927-.333-2.118-.502-3.586-.502h-1.992c.237-2.452 1.11-4.538 2.621-6.263 1.508-1.72 3.6-3.233 6.273-4.532L38.99 12a24.426 24.426 0 0 0-9.033 6.588c-2.5 2.9-3.746 5.772-3.746 8.62 0 3.062.722 5.462 2.178 7.196C29.846 36.137 31.931 37 34.643 37c1.72 0 3.215-.574 4.486-1.721 1.27-1.146 1.907-2.488 1.907-4.018 0-.739-.112-1.457-.339-2.15zm-18.21 0a5.037 5.037 0 0 0-1.16-1.901c-.567-.6-1.315-1.064-2.243-1.4-.926-.333-2.117-.502-3.586-.502h-1.993c.239-2.452 1.111-4.538 2.62-6.263 1.51-1.72 3.603-3.233 6.274-4.532L20.78 12a24.427 24.427 0 0 0-9.034 6.588C9.245 21.488 8 24.36 8 27.208c0 3.062.72 5.462 2.178 7.196C11.632 36.137 13.718 37 16.43 37c1.72 0 3.216-.574 4.488-1.721 1.27-1.146 1.905-2.488 1.905-4.018 0-.739-.113-1.457-.337-2.15z" fill="#fff"/></svg>