<svg width="29" height="197" viewBox="0 0 29 197" fill="none" xmlns="http://www.w3.org/2000/svg">
<path d="M1.04094 124.609L14.5204 138.088L28 124.609" stroke="#FA4B00" stroke-width="1.42185"/>
<path opacity="0.9" d="M1.04094 116.368L14.5204 129.848L28 116.368" stroke="#FA4B00" stroke-width="1.42185"/>
<path opacity="0.8" d="M1.04094 108.128L14.5204 121.607L28 108.128" stroke="#FA4B00" stroke-width="1.42185"/>
<path opacity="0.7" d="M1.04094 99.8869L14.5204 113.367L28 99.8869" stroke="#FA4B00" stroke-width="1.42185"/>
<path opacity="0.65" d="M1.04094 91.6465L14.5204 105.126L28 91.6465" stroke="#FA4B00" stroke-width="1.42185"/>
<path opacity="0.6" d="M1.04094 83.4059L14.5204 96.8853L28 83.4059" stroke="#FA4B00" stroke-width="1.42185"/>
<path opacity="0.55" d="M1.04094 75.1654L14.5204 88.6448L28 75.1654" stroke="#FA4B00" stroke-width="1.42185"/>
<path opacity="0.5" d="M1.04094 66.9247L14.5204 80.4041L28 66.9247" stroke="#FA4B00" stroke-width="1.42185"/>
<path opacity="0.45" d="M1.04094 58.6842L14.5204 72.1636L28 58.6842" stroke="#FA4B00" stroke-width="1.42185"/>
<path opacity="0.4" d="M1.04094 50.4435L14.5204 63.9232L28 50.4435" stroke="#FA4B00" stroke-width="1.42185"/>
<path opacity="0.35" d="M1.04094 42.2029L14.5204 55.6826L28 42.2029" stroke="#FA4B00" stroke-width="1.42185"/>
<path opacity="0.3" d="M1.04094 33.9625L14.5204 47.442L28 33.9625" stroke="#FA4B00" stroke-width="1.42185"/>
<path opacity="0.25" d="M1.04094 25.7219L14.5204 39.2014L28 25.7219" stroke="#FA4B00" stroke-width="1.42185"/>
<path opacity="0.2" d="M1.04094 17.4813L14.5204 30.9608L28 17.4813" stroke="#FA4B00" stroke-width="1.42185"/>
<path opacity="0.15" d="M1.04094 9.24073L14.5204 22.7202L28 9.24073" stroke="#FA4B00" stroke-width="1.42185"/>
<path opacity="0.1" d="M1.04094 1.00013L14.5204 14.4796L28 1.00013" stroke="#FA4B00" stroke-width="1.42185"/>
<path opacity="0.01" d="M1.04094 182.187L14.5204 195.667L28 182.187" stroke="#FA4B00" stroke-width="1.42185"/>
<path d="M1.04094 173.947L14.5204 187.426L28 173.947" stroke="#FA4B00" stroke-width="1.42185"/>
<path d="M1.04094 165.706L14.5204 179.186L28 165.706" stroke="#FA4B00" stroke-width="1.42185"/>
<path d="M1.04094 157.466L14.5204 170.945L28 157.466" stroke="#FA4B00" stroke-width="1.42185"/>
<path d="M1.04094 149.225L14.5204 162.705L28 149.225" stroke="#FA4B00" stroke-width="1.42185"/>
<path d="M1.04094 140.985L14.5204 154.464L28 140.985" stroke="#FA4B00" stroke-width="1.42185"/>
<path d="M1.04094 132.744L14.5204 146.223L28 132.744" stroke="#FA4B00" stroke-width="1.42185"/>
</svg>
