<svg width="50" height="50" viewBox="0 0 50 50" fill="none" xmlns="http://www.w3.org/2000/svg">
<rect width="50" height="50" fill="#FA4B00"/>
<path fill-rule="evenodd" clip-rule="evenodd" d="M40.6973 29.1107C40.4723 28.4179 40.0821 27.783 39.5393 27.2089C38.9705 26.6089 38.2232 26.1446 37.2964 25.8089C36.3688 25.4759 35.1777 25.3071 33.7098 25.3071H31.7179C31.9554 22.8554 32.8286 20.7688 34.3393 19.0438C35.8473 17.3241 37.9384 15.8107 40.6116 14.5125L38.9902 12C35.4705 13.4991 32.4589 15.692 29.9572 18.5884C27.4563 21.4875 26.2107 24.3598 26.2107 27.2089C26.2107 30.2696 26.933 32.6705 28.3893 34.4036C29.8455 36.1366 31.9312 37 34.6429 37C36.3634 37 37.8581 36.4259 39.1295 35.2786C40.3991 34.133 41.0357 32.7911 41.0357 31.2607C41.0357 30.5223 40.9241 29.8036 40.6973 29.1107ZM22.4866 29.1107C22.2598 28.4179 21.8705 27.783 21.3268 27.2089C20.7598 26.6089 20.0116 26.1446 19.0839 25.8089C18.158 25.4759 16.967 25.3071 15.4982 25.3071H13.5054C13.7438 22.8554 14.6161 20.7688 16.1259 19.0438C17.6348 17.3241 19.7277 15.8107 22.3991 14.5125L20.7786 12C17.258 13.4991 14.2482 15.692 11.7455 18.5884C9.24465 21.4875 8 24.3598 8 27.2089C8 30.2696 8.72053 32.6705 10.1777 34.4036C11.6321 36.1366 13.7179 37 16.4313 37C18.1509 37 19.6473 36.4259 20.9187 35.2786C22.1884 34.133 22.8241 32.7911 22.8241 31.2607C22.8241 30.5223 22.7107 29.8036 22.4866 29.1107Z" fill="white"/>
</svg>
